<svg xmlns="http://www.w3.org/2000/svg" width="25" height="25"><path d="M17.5 22.5h-14c-.5 0-.9-.4-1-.9l-2-18c0-.3.1-.6.2-.8.2-.2.5-.3.8-.3h18c.3 0 .6.1.7.3.2.2.3.5.3.8l-2 18c-.1.5-.5.9-1 .9m-13.1-2h12.2l1.8-16H2.6l1.8 16z"/><path d="M22.8 16.1c-.9 0-2.3-.4-4.9-1.8-1.7-.9-3.8-2.2-6.3-3.8-1-.7-1.7-1.1-1.7-1.1-.4-.4-.5-1-.2-1.5s.9-.6 1.4-.3c0 0 .6.4 1.6 1.1.9.6 3.7 2.4 6.2 3.7 2 1.1 3 1.4 3.5 1.5-.3-.9-1.5-2.4-4.1-4.4-.4-.3-.5-1-.2-1.4.3-.4 1-.5 1.4-.2 3.4 2.6 5 4.7 5 6.4 0 .6-.3 1.1-.7 1.4-.3.3-.6.4-1 .4z"/><g><path d="M12.5 8.5c0 1.105-.895 2-2 2s-2-.895-2-2 .895-2 2-2 2 .895 2 2z" fill-rule="evenodd"/></g><g><path d="M10.5 11C9.1 11 8 9.9 8 8.5S9.1 6 10.5 6 13 7.1 13 8.5 11.9 11 10.5 11m0-4C9.7 7 9 7.7 9 8.5s.7 1.5 1.5 1.5S12 9.3 12 8.5 11.3 7 10.5 7z"/></g></svg>