<svg xmlns="http://www.w3.org/2000/svg" width="24" height="24"><path d="M12 21c-5 0-9-4-9-9s4-9 9-9 9 4 9 9-4 9-9 9m0-16c-3.9 0-7 3.1-7 7s3.1 7 7 7 7-3.1 7-7-3.1-7-7-7z" fill-rule="evenodd" fill="#26c6da"/><g><path d="M12 16c-2.2 0-4-1.8-4-4s1.8-4 4-4 4 1.8 4 4-1.8 4-4 4m0-6c-1.1 0-2 .9-2 2s.9 2 2 2 2-.9 2-2-.9-2-2-2z" fill-rule="evenodd" fill="#888"/><path d="M12 24c-.6 0-1-.4-1-1v-8c0-.6.4-1 1-1s1 .4 1 1v8c0 .6-.4 1-1 1z" fill="#888"/><path d="M12 10c-.6 0-1-.4-1-1V1c0-.6.4-1 1-1s1 .4 1 1v8c0 .6-.4 1-1 1z" fill="#888"/><g><path d="M9 13H1c-.6 0-1-.4-1-1s.4-1 1-1h8c.6 0 1 .4 1 1s-.4 1-1 1z" fill="#888"/></g><g><path d="M23 13h-8c-.6 0-1-.4-1-1s.4-1 1-1h8c.6 0 1 .4 1 1s-.4 1-1 1z" fill="#888"/></g></g></svg>