<svg xmlns="http://www.w3.org/2000/svg" width="24" height="24"><path d="M15 19H9c-.6 0-1-.4-1-1v-.5c0-1.4-.6-2.8-1.7-3.9C4.7 12 3.9 9.9 4 7.7 4.2 3.5 7.7.1 11.9 0h.1c4.4 0 8 3.6 8 8 0 2.1-.8 4.2-2.4 5.7-1.1 1-1.6 2.4-1.6 3.8v.5c0 .6-.4 1-1 1m-5-2h4c.1-1.8.9-3.4 2.2-4.8C17.4 11.1 18 9.6 18 8c0-3.3-2.7-6-6-6h-.1C8.8 2.1 6.1 4.6 6 7.8c-.1 1.6.6 3.2 1.7 4.4 1.4 1.4 2.2 3.1 2.3 4.8z" fill="#26c6da"/><path d="M12 24c-2.2 0-4-1.8-4-4v-2c0-.6.4-1 1-1h6c.6 0 1 .4 1 1v2c0 2.2-1.8 4-4 4m-2-5v1c0 1.1.9 2 2 2s2-.9 2-2v-1h-4z" fill="#888"/><g><path d="M9 9c-.6 0-1-.4-1-1 0-2.2 1.8-4 4-4 .6 0 1 .4 1 1s-.4 1-1 1c-1.1 0-2 .9-2 2 0 .6-.4 1-1 1z" fill="#888"/></g></svg>