<svg xmlns="http://www.w3.org/2000/svg" width="24" height="24"><path d="M12 20c-.4 0-.7-.2-.9-.5l-5.2-9.1c-1.8-3.2-.8-7.3 2.4-9.2 2.4-1.5 5.2-1.4 7.4-.1 3.2 2 4.3 6.1 2.4 9.3l-5.2 9.1c-.2.3-.5.5-.9.5m0-17.9c-.9 0-1.8.3-2.6.7-2.3 1.4-3 4.3-1.7 6.6L12 17l4.3-7.6c1.3-2.3.6-5.2-1.7-6.6-.8-.5-1.7-.7-2.6-.7z" fill-rule="evenodd" fill="#888"/><path d="M12 10c-1.7 0-3-1.3-3-3s1.3-3 3-3 3 1.3 3 3-1.3 3-3 3m0-4c-.6 0-1 .4-1 1s.4 1 1 1 1-.4 1-1-.4-1-1-1z" fill-rule="evenodd" fill="#26c6da"/><g><path d="M12 24c-4 0-8-1.4-8-4 0-2.1 2.7-3.7 6.8-4l.1 2c-3.2.3-4.9 1.4-4.9 2 0 .7 2.3 2 6 2s6-1.3 6-2c0-.6-1.7-1.7-4.9-2l.1-2c4.1.3 6.8 1.9 6.8 4 0 2.6-4 4-8 4z" fill-rule="evenodd" fill="#888"/></g></svg>