<svg xmlns="http://www.w3.org/2000/svg" width="55" height="55"><path d="M14.84 20.933c-6.7 0-8-2.6-8-7 0-6.5 7.1-11.6 7.4-11.8.3-.2.8-.2 1.2 0 .3.2 7.4 5.3 7.4 11.8 0 1.7 0 7-8 7m0-16.7c-1.6 1.2-6 5.2-6 9.7 0 3.6.5 5 6 5s6-2.6 6-5c0-4.5-4.4-8.5-6-9.7z"/><path d="M16.84 25.933c-.3 0-.6-.2-.8-.4-3.6-5.5-2.6-13-2.3-15.8.1-.4.1-.7.1-.8 0-.5.5-1 1-1s1 .4 1 1c0 .2 0 .5-.1 1-.4 2.6-1.3 9.6 1.9 14.4.3.5.2 1.1-.3 1.4-.1.1-.3.2-.5.2z"/><path d="M41.333 52c-2.8 0-9-8.7-9-15 0-5 4-9 9-9s9 4 9 9c0 4-2.4 8.2-3.4 9.8-.6.9-3.4 5.2-5.6 5.2m0-22c-3.9 0-7 3.1-7 7 0 5.6 5.6 12.7 7 13 1.4-.3 7-7.4 7-13 0-3.9-3.1-7-7-7z" fill-rule="evenodd"/><path d="M41.333 42c-2.8 0-5-2.2-5-5s2.2-5 5-5 5 2.2 5 5-2.2 5-5 5m0-8c-1.7 0-3 1.3-3 3s1.3 3 3 3 3-1.3 3-3-1.3-3-3-3z" fill-rule="evenodd"/><path d="M46.333 23.958h-14c-.5 0-.9-.4-1-.9l-2-18c0-.3.1-.6.2-.8.2-.2.5-.3.8-.3h18c.3 0 .6.1.7.3.2.2.3.5.3.8l-2 18c-.1.5-.5.9-1 .9m-13.1-2h12.2l1.8-16h-15.8l1.8 16z" fill-rule="evenodd"/><path d="M51.633 17.558c-.9 0-2.3-.4-4.9-1.8-1.7-.9-3.8-2.2-6.3-3.8-1-.7-1.7-1.1-1.7-1.1-.4-.4-.5-1-.2-1.5s.9-.6 1.4-.3c0 0 .6.4 1.6 1.1.9.6 3.7 2.4 6.2 3.7 2 1.1 3 1.4 3.5 1.5-.3-.9-1.5-2.4-4.1-4.4-.4-.3-.5-1-.2-1.4.3-.4 1-.5 1.4-.2 3.4 2.6 5 4.7 5 6.4 0 .6-.3 1.1-.7 1.4-.3.3-.6.4-1 .4z" fill-rule="evenodd"/><g><path d="M41.333 9.958c0 1.105-.895 2-2 2-1.104 0-2-.895-2-2 0-1.104.896-2 2-2 1.105 0 2 .896 2 2z" fill-rule="evenodd"/></g><g><path d="M39.333 12.458c-1.4 0-2.5-1.1-2.5-2.5s1.1-2.5 2.5-2.5 2.5 1.1 2.5 2.5-1.1 2.5-2.5 2.5m0-4c-.8 0-1.5.7-1.5 1.5s.7 1.5 1.5 1.5 1.5-.7 1.5-1.5-.7-1.5-1.5-1.5z" fill-rule="evenodd"/></g><g><path d="M25.59 43.016H4.09v-9.76h21.5v9.76M5.88 41.24H23.8v-6.21H5.88v6.21z" fill-rule="evenodd"/></g><g><path d="M13.048 35.03H5.88V29.71h7.168v5.323m-5.375-1.773h3.583v-1.774H7.673v1.774z" fill-rule="evenodd"/></g><g><path d="M23.798 35.03H16.63V29.71H23.8v5.323m-5.375-1.773h3.583v-1.774h-3.583v1.774z" fill-rule="evenodd"/></g><g><path d="M25.59 51H4.09v-9.76h21.5V51M5.88 49.226H23.8v-6.21H5.88v6.21z" fill-rule="evenodd"/></g></svg>