<svg xmlns="http://www.w3.org/2000/svg" width="26" height="26"><path d="M24.007 25h-22c-.6 0-1-.4-1-1V2c0-.6.4-1 1-1h22c.6 0 1 .4 1 1v22c0 .6-.4 1-1 1m-21-2h20V3h-20v20z"/><path d="M24.007 20h-22c-.6 0-1-.4-1-1s.4-1 1-1h22c.6 0 1 .4 1 1s-.4 1-1 1z"/><path d="M2.007 18c-.3 0-.5-.1-.7-.3-.4-.4-.4-1 0-1.4l6-6c.4-.4 1-.4 1.4 0 .4.4.4 1 0 1.4l-6 6c-.2.2-.4.3-.7.3z"/><path d="M12.007 16c-.3 0-.5-.1-.7-.3l-4-4c-.4-.4-.4-1 0-1.4.4-.4 1-.4 1.4 0l4 4c.4.4.4 1 0 1.4-.2.2-.4.3-.7.3z"/><g><path d="M10.007 14c-.3 0-.5-.1-.7-.3-.4-.4-.4-1 0-1.4l5-5c.4-.4 1-.4 1.4 0 .4.4.4 1 0 1.4l-5 5c-.2.2-.4.3-.7.3z"/></g><g><path d="M23.507 17.5c-.3 0-.5-.1-.7-.3l-8.5-8.5c-.4-.4-.4-1 0-1.4.4-.4 1-.4 1.4 0l8.5 8.5c.4.4.4 1 0 1.4-.2.2-.4.3-.7.3z"/></g><g><path d="M4.007 8c-1 0-1.9-.4-2.7-1-.4-.4-.4-1-.1-1.4.4-.4 1-.4 1.4-.1.4.3.9.5 1.4.5 1.1 0 2-.9 2-2 0-.5-.2-1-.5-1.3-.4-.4-.3-1 .1-1.4.4-.4 1-.4 1.4 0 .6.8 1 1.7 1 2.7 0 2.2-1.8 4-4 4z"/></g></svg>