<svg xmlns="http://www.w3.org/2000/svg" width="25" height="25"><path d="M8.42 21.44c-2.55 0-4.923-.748-6.92-2.028.353.042.712.063 1.077.063 2.114 0 4.06-.722 5.605-1.932-1.975-.036-3.642-1.342-4.216-3.135.276.053.558.08.85.08.41 0 .81-.054 1.188-.157-2.065-.414-3.62-2.238-3.62-4.425v-.057c.61.338 1.304.54 2.044.564-1.21-.81-2.008-2.19-2.008-3.756 0-.827.223-1.603.612-2.27 2.226 2.73 5.552 4.528 9.303 4.717-.077-.33-.117-.675-.117-1.03 0-2.492 2.02-4.513 4.514-4.513 1.298 0 2.47.55 3.294 1.426 1.028-.203 1.994-.578 2.866-1.095-.337 1.054-1.052 1.94-1.984 2.498.913-.11 1.782-.352 2.592-.71-.605.904-1.37 1.7-2.252 2.335.008.194.013.39.013.584 0 5.965-4.54 12.842-12.84 12.842z" fill="#fff"/></svg>