<svg xmlns="http://www.w3.org/2000/svg" width="100" height="100"><path d="M25.442 25.438c0-13.118 11.486-23.746 25.647-23.746 14.17 0 25.644 10.628 25.644 23.746 0 13.117-11.475 23.746-25.645 23.746-14.16 0-25.648-10.63-25.648-23.746m-4.47 19.77l3.52 3.625S9.51 53.73 7.072 89.866c0 0-.973 7.978 4.28 7.993H89.45s5.007-.26 4.648-8.18c0 0-2.52-33.858-17.083-40.474l2.333-4.02-.093-.018-3.315-1.357C70.12 50.558 61.158 54.9 51.09 54.9c-10.338 0-19.5-4.59-25.312-11.66l-4.738 1.93c-.025.017-.045.02-.07.037z"/></svg>