<svg xmlns="http://www.w3.org/2000/svg" width="48" height="48"><path d="M37 39H11l-6 6V11c0-3.3 2.7-6 6-6h26c3.3 0 6 2.7 6 6v22c0 3.3-2.7 6-6 6z" fill="#E0F7FA"/><path d="M27 22c0 1.657-1.343 3-3 3s-3-1.343-3-3 1.343-3 3-3 3 1.343 3 3z" fill-rule="evenodd" fill="#80DEEA"/><g><path d="M37 22c0 1.657-1.343 3-3 3s-3-1.343-3-3 1.343-3 3-3 3 1.343 3 3z" fill-rule="evenodd" fill="#80DEEA"/></g><g><path d="M17 22c0 1.657-1.343 3-3 3s-3-1.343-3-3 1.343-3 3-3 3 1.343 3 3z" fill-rule="evenodd" fill="#80DEEA"/></g></svg>