<svg xmlns="http://www.w3.org/2000/svg" width="48" height="38"><path d="M43.2 48H4.8C2.16 48 0 45.893 0 43.317V18.85c0-1.523.72-2.928 2.04-3.865L24 0l21.96 14.985c1.32.82 2.04 2.342 2.04 3.864v24.467C48 45.893 45.84 48 43.2 48z" fill-rule="evenodd" fill="#00838f"/><path d="M9.6 12.878h28.8v25.756H9.6V12.878z" fill-rule="evenodd" fill="#fff"/><g><path d="M43.2 48H4.8C2.16 48 0 45.893 0 43.317V19.902l24 15.22 24-15.22v23.415C48 45.893 45.84 48 43.2 48z" fill-rule="evenodd" fill="#e0f7fa"/></g></svg>